<?xml version="1.0" encoding="UTF-8"?>
<svg width="32px" height="32px" viewBox="0 0 32 32" version="1.1" xmlns="http://www.w3.org/2000/svg" xmlns:xlink="http://www.w3.org/1999/xlink">
    <!-- Generator: Sketch 51.2 (57519) - http://www.bohemiancoding.com/sketch -->
    <title>Flags/US</title>
    <desc>Created with Sketch.</desc>
    <defs></defs>
    <g id="Flags/US" stroke="none" stroke-width="1" fill="none" fill-rule="evenodd">
        <g id="united-states-of-america" fill-rule="nonzero">
            <circle id="Oval" fill="#EBECEE" cx="16" cy="16" r="16"></circle>
            <g id="Group" transform="translate(0.500000, 3.437500)" fill="#FF4040">
                <path d="M14.804375,12.5625 L31.5,12.5625 C31.5,11.118375 31.3075,9.719375 30.9488125,8.3885625 L14.804375,8.3885625 L14.804375,12.5625 Z" id="Shape"></path>
                <path d="M14.804375,4.2146875 L29.151625,4.2146875 C28.1721875,2.6164375 26.919875,1.20375 25.45975,0.04075 L14.804375,0.04075 L14.804375,4.2146875 Z" id="Shape"></path>
                <path d="M15.5,28.5625 C19.2655625,28.5625 22.726625,27.261 25.45975,25.08425 L5.54025,25.08425 C8.273375,27.261 11.7344375,28.5625 15.5,28.5625 Z" id="Shape"></path>
                <path d="M1.848375,20.9103125 L29.151625,20.9103125 C29.9379375,19.62725 30.54775,18.22475 30.9488125,16.736375 L0.0511875,16.736375 C0.45225,18.22475 1.0620625,19.62725 1.848375,20.9103125 Z" id="Shape"></path>
            </g>
            <path d="M7.4115,2.498625 L8.8695625,2.498625 L7.5133125,3.4839375 L8.031375,5.07825 L6.6751875,4.0929375 L5.319,5.07825 L5.7665,3.7009375 C4.572375,4.695625 3.52575,5.861 2.66325,7.1595 L3.1304375,7.1595 L2.267125,7.7866875 C2.132625,8.0110625 2.003625,8.239 1.88,8.4703125 L2.29225,9.739125 L1.523125,9.1803125 C1.3319375,9.585375 1.1570625,9.9995625 0.999875,10.422375 L1.4540625,11.820375 L3.1304375,11.820375 L1.7741875,12.8056875 L2.29225,14.4 L0.9360625,13.4146875 L0.1236875,14.0049375 C0.042375,14.6585625 0,15.3243125 0,16 L16,16 C16,7.1635 16,6.12175 16,0 C12.83925,0 9.8928125,0.916875 7.4115,2.498625 Z M8.031375,14.4 L6.6751875,13.4146875 L5.319,14.4 L5.8370625,12.8056875 L4.4808125,11.820375 L6.1571875,11.820375 L6.6751875,10.2260625 L7.1931875,11.820375 L8.8695625,11.820375 L7.5133125,12.8056875 L8.031375,14.4 Z M7.5133125,8.1448125 L8.031375,9.739125 L6.6751875,8.7538125 L5.319,9.739125 L5.8370625,8.1448125 L4.4808125,7.1595 L6.1571875,7.1595 L6.6751875,5.5651875 L7.1931875,7.1595 L8.8695625,7.1595 L7.5133125,8.1448125 Z M13.7705,14.4 L12.4143125,13.4146875 L11.058125,14.4 L11.5761875,12.8056875 L10.2199375,11.820375 L11.8963125,11.820375 L12.4143125,10.2260625 L12.9323125,11.820375 L14.6086875,11.820375 L13.2524375,12.8056875 L13.7705,14.4 Z M13.2524375,8.1448125 L13.7705,9.739125 L12.4143125,8.7538125 L11.058125,9.739125 L11.5761875,8.1448125 L10.2199375,7.1595 L11.8963125,7.1595 L12.4143125,5.5651875 L12.9323125,7.1595 L14.6086875,7.1595 L13.2524375,8.1448125 Z M13.2524375,3.4839375 L13.7705,5.07825 L12.4143125,4.0929375 L11.058125,5.07825 L11.5761875,3.4839375 L10.2199375,2.498625 L11.8963125,2.498625 L12.4143125,0.9043125 L12.9323125,2.498625 L14.6086875,2.498625 L13.2524375,3.4839375 Z" id="Shape" fill="#063397"></path>
        </g>
    </g>
</svg>